<svg width="101" height="32" viewBox="0 0 101 32" fill="none" xmlns="http://www.w3.org/2000/svg">
<path d="M10.0038 8.45459H12.6387V17.9574C12.6387 18.9991 12.3925 19.9153 11.9001 20.706C11.4124 21.4967 10.7258 22.1146 9.8404 22.5597C8.95498 23 7.92042 23.2202 6.73671 23.2202C5.54826 23.2202 4.51133 23 3.62591 22.5597C2.74049 22.1146 2.05394 21.4967 1.56625 20.706C1.07856 19.9153 0.834717 18.9991 0.834717 17.9574V8.45459H3.46966V17.7373C3.46966 18.3433 3.60224 18.8831 3.86739 19.3566C4.13727 19.8301 4.51606 20.2017 5.00375 20.4716C5.49144 20.7368 6.06909 20.8694 6.73671 20.8694C7.40432 20.8694 7.98197 20.7368 8.46966 20.4716C8.96208 20.2017 9.34087 19.8301 9.60602 19.3566C9.87118 18.8831 10.0038 18.3433 10.0038 17.7373V8.45459Z" fill="#D0D5DD"/>
<path d="M17.9601 16.608V23H15.389V12.091H17.8464V13.9446H17.9743C18.2252 13.3339 18.6253 12.8485 19.1746 12.4887C19.7285 12.1288 20.4127 11.9489 21.2271 11.9489C21.98 11.9489 22.6357 12.1099 23.1944 12.4319C23.7579 12.7538 24.1935 13.2202 24.5013 13.831C24.8138 14.4418 24.9676 15.1828 24.9629 16.054V23H22.3919V16.4517C22.3919 15.7226 22.2025 15.152 21.8237 14.7401C21.4497 14.3282 20.9312 14.1222 20.2683 14.1222C19.8185 14.1222 19.4184 14.2216 19.068 14.4205C18.7224 14.6146 18.4501 14.8964 18.2513 15.2657C18.0571 15.635 17.9601 16.0824 17.9601 16.608Z" fill="#D0D5DD"/>
<path d="M33.024 12.091V14.0796H26.7527V12.091H33.024ZM28.301 9.47732H30.872V19.7188C30.872 20.0644 30.9241 20.3296 31.0283 20.5142C31.1372 20.6942 31.2792 20.8173 31.4544 20.8836C31.6296 20.9499 31.8237 20.983 32.0368 20.983C32.1978 20.983 32.3445 20.9712 32.4771 20.9475C32.6144 20.9238 32.7186 20.9025 32.7896 20.8836L33.2229 22.8935C33.0855 22.9409 32.889 22.9929 32.6334 23.0498C32.3824 23.1066 32.0747 23.1397 31.7101 23.1492C31.0661 23.1681 30.4861 23.0711 29.97 22.858C29.4539 22.6402 29.0444 22.304 28.7413 21.8495C28.443 21.3949 28.2962 20.8267 28.301 20.1449V9.47732Z" fill="#D0D5DD"/>
<path d="M35.1742 23V12.091H37.7452V23H35.1742ZM36.4668 10.5427C36.0596 10.5427 35.7092 10.4077 35.4157 10.1378C35.1221 9.86321 34.9753 9.53413 34.9753 9.15061C34.9753 8.76235 35.1221 8.43328 35.4157 8.1634C35.7092 7.88878 36.0596 7.75146 36.4668 7.75146C36.8787 7.75146 37.2291 7.88878 37.518 8.1634C37.8115 8.43328 37.9583 8.76235 37.9583 9.15061C37.9583 9.53413 37.8115 9.86321 37.518 10.1378C37.2291 10.4077 36.8787 10.5427 36.4668 10.5427Z" fill="#D0D5DD"/>
<path d="M45.8365 12.091V14.0796H39.5652V12.091H45.8365ZM41.1135 9.47732H43.6845V19.7188C43.6845 20.0644 43.7366 20.3296 43.8408 20.5142C43.9497 20.6942 44.0917 20.8173 44.2669 20.8836C44.4421 20.9499 44.6362 20.983 44.8493 20.983C45.0103 20.983 45.157 20.9712 45.2896 20.9475C45.4269 20.9238 45.5311 20.9025 45.6021 20.8836L46.0354 22.8935C45.898 22.9409 45.7015 22.9929 45.4459 23.0498C45.1949 23.1066 44.8872 23.1397 44.5226 23.1492C43.8786 23.1681 43.2986 23.0711 42.7825 22.858C42.2664 22.6402 41.8569 22.304 41.5538 21.8495C41.2555 21.3949 41.1087 20.8267 41.1135 20.1449V9.47732Z" fill="#D0D5DD"/>
<path d="M50.7921 8.45459V23H48.2211V8.45459H50.7921Z" fill="#D0D5DD"/>
<path d="M58.2655 23.2131C57.1717 23.2131 56.2271 22.9858 55.4317 22.5313C54.6409 22.072 54.0325 21.4233 53.6064 20.5853C53.1802 19.7425 52.9672 18.7505 52.9672 17.6094C52.9672 16.4873 53.1802 15.5024 53.6064 14.6549C54.0373 13.8026 54.6386 13.1397 55.4104 12.6662C56.1821 12.188 57.0889 11.9489 58.1305 11.9489C58.8029 11.9489 59.4373 12.0578 60.0339 12.2756C60.6353 12.4887 61.1656 12.8201 61.6248 13.2699C62.0889 13.7197 62.4534 14.2927 62.7186 14.9887C62.9837 15.68 63.1163 16.5038 63.1163 17.4603V18.2486H54.1746V16.5157H60.6518C60.6471 16.0232 60.5406 15.5853 60.3322 15.2017C60.1239 14.8135 59.8327 14.5081 59.4587 14.2856C59.0893 14.063 58.6585 13.9517 58.166 13.9517C57.6405 13.9517 57.1788 14.0796 56.7811 14.3353C56.3834 14.5862 56.0732 14.9177 55.8507 15.3296C55.6329 15.7368 55.5216 16.1842 55.5169 16.6719V18.1847C55.5169 18.8192 55.6329 19.3637 55.8649 19.8182C56.0969 20.268 56.4212 20.6137 56.8379 20.8552C57.2546 21.0919 57.7423 21.2103 58.301 21.2103C58.675 21.2103 59.0136 21.1582 59.3166 21.054C59.6196 20.9451 59.8824 20.7865 60.105 20.5782C60.3275 20.3698 60.4956 20.1118 60.6092 19.804L63.0098 20.0739C62.8583 20.7084 62.5695 21.2624 62.1433 21.7358C61.7219 22.2046 61.1821 22.5692 60.524 22.8296C59.8658 23.0853 59.113 23.2131 58.2655 23.2131Z" fill="#D0D5DD"/>
<path d="M69.3397 23.1918C68.4827 23.1918 67.7156 22.9716 67.0386 22.5313C66.3615 22.091 65.8264 21.4517 65.4334 20.6137C65.0404 19.7756 64.8439 18.7576 64.8439 17.5597C64.8439 16.3476 65.0428 15.3249 65.4405 14.4915C65.843 13.6535 66.3851 13.0214 67.067 12.5952C67.7488 12.1643 68.5087 11.9489 69.3468 11.9489C69.986 11.9489 70.5116 12.0578 70.9235 12.2756C71.3354 12.4887 71.6621 12.7467 71.9036 13.0498C72.1451 13.3481 72.3321 13.6298 72.4647 13.8949H72.5712V8.45459H75.1493V23H72.6209V21.2813H72.4647C72.3321 21.5464 72.1404 21.8282 71.8894 22.1265C71.6385 22.42 71.307 22.671 70.8951 22.8793C70.4831 23.0876 69.9647 23.1918 69.3397 23.1918ZM70.057 21.0824C70.6015 21.0824 71.0655 20.9357 71.4491 20.6421C71.8326 20.3438 72.1238 19.9295 72.3226 19.3992C72.5215 18.8689 72.6209 18.251 72.6209 17.5455C72.6209 16.84 72.5215 16.2268 72.3226 15.706C72.1285 15.1852 71.8397 14.7803 71.4562 14.4915C71.0774 14.2027 70.611 14.0583 70.057 14.0583C69.4841 14.0583 69.0059 14.2074 68.6224 14.5057C68.2388 14.804 67.95 15.216 67.7559 15.7415C67.5618 16.2671 67.4647 16.8684 67.4647 17.5455C67.4647 18.2273 67.5618 18.8357 67.7559 19.3708C67.9547 19.9011 68.2459 20.3201 68.6295 20.6279C69.0177 20.9309 69.4936 21.0824 70.057 21.0824Z" fill="#D0D5DD"/>
<path d="M92.1327 8.45459H94.7676V17.9574C94.7676 18.9991 94.5214 19.9153 94.029 20.706C93.5413 21.4967 92.8547 22.1146 91.9693 22.5597C91.0839 23 90.0493 23.2202 88.8656 23.2202C87.6772 23.2202 86.6402 23 85.7548 22.5597C84.8694 22.1146 84.1828 21.4967 83.6952 20.706C83.2075 19.9153 82.9636 18.9991 82.9636 17.9574V8.45459H85.5986V17.7373C85.5986 18.3433 85.7311 18.8831 85.9963 19.3566C86.2662 19.8301 86.645 20.2017 87.1327 20.4716C87.6203 20.7368 88.198 20.8694 88.8656 20.8694C89.5332 20.8694 90.1109 20.7368 90.5986 20.4716C91.091 20.2017 91.4698 19.8301 91.7349 19.3566C92.0001 18.8831 92.1327 18.3433 92.1327 17.7373V8.45459Z" fill="#D0D5DD"/>
<path d="M100.267 8.45459V23H97.6316V8.45459H100.267Z" fill="#D0D5DD"/>
</svg>
