<svg width="101" height="32" viewBox="0 0 101 32" fill="none" xmlns="http://www.w3.org/2000/svg">
<path d="M10.0035 8.45453H12.6384V17.9574C12.6384 18.999 12.3922 19.9152 11.8998 20.7059C11.4121 21.4967 10.7256 22.1146 9.84015 22.5596C8.95474 23 7.92017 23.2202 6.73646 23.2202C5.54801 23.2202 4.51108 23 3.62567 22.5596C2.74025 22.1146 2.0537 21.4967 1.56601 20.7059C1.07832 19.9152 0.834473 18.999 0.834473 17.9574V8.45453H3.46942V17.7372C3.46942 18.3433 3.60199 18.883 3.86714 19.3565C4.13703 19.83 4.51582 20.2017 5.00351 20.4716C5.4912 20.7367 6.06885 20.8693 6.73646 20.8693C7.40408 20.8693 7.98173 20.7367 8.46942 20.4716C8.96184 20.2017 9.34063 19.83 9.60578 19.3565C9.87093 18.883 10.0035 18.3433 10.0035 17.7372V8.45453Z" fill="#EDF2F4"/>
<path d="M17.9598 16.6079V23H15.3888V12.0909H17.8462V13.9446H17.974C18.225 13.3338 18.6251 12.8485 19.1743 12.4886C19.7283 12.1288 20.4125 11.9488 21.2269 11.9488C21.9797 11.9488 22.6355 12.1098 23.1942 12.4318C23.7576 12.7538 24.1933 13.2202 24.501 13.8309C24.8135 14.4417 24.9674 15.1827 24.9627 16.054V23H22.3916V16.4517C22.3916 15.7225 22.2023 15.152 21.8235 14.74C21.4494 14.3281 20.9309 14.1221 20.2681 14.1221C19.8183 14.1221 19.4182 14.2216 19.0678 14.4204C18.7221 14.6146 18.4499 14.8963 18.251 15.2656C18.0569 15.6349 17.9598 16.0824 17.9598 16.6079Z" fill="#EDF2F4"/>
<path d="M33.0238 12.0909V14.0795H26.7524V12.0909H33.0238ZM28.3007 9.47726H30.8718V19.7187C30.8718 20.0644 30.9238 20.3295 31.028 20.5142C31.1369 20.6941 31.279 20.8172 31.4541 20.8835C31.6293 20.9498 31.8235 20.9829 32.0365 20.9829C32.1975 20.9829 32.3443 20.9711 32.4769 20.9474C32.6142 20.9238 32.7184 20.9024 32.7894 20.8835L33.2226 22.8934C33.0853 22.9408 32.8888 22.9929 32.6331 23.0497C32.3822 23.1065 32.0744 23.1397 31.7098 23.1491C31.0659 23.1681 30.4859 23.071 29.9698 22.8579C29.4537 22.6401 29.0441 22.304 28.7411 21.8494C28.4428 21.3949 28.296 20.8267 28.3007 20.1449V9.47726Z" fill="#EDF2F4"/>
<path d="M35.174 23V12.0909H37.745V23H35.174ZM36.4666 10.5426C36.0594 10.5426 35.709 10.4077 35.4154 10.1378C35.1219 9.86315 34.9751 9.53407 34.9751 9.15055C34.9751 8.76229 35.1219 8.43322 35.4154 8.16333C35.709 7.88871 36.0594 7.7514 36.4666 7.7514C36.8785 7.7514 37.2289 7.88871 37.5177 8.16333C37.8113 8.43322 37.9581 8.76229 37.9581 9.15055C37.9581 9.53407 37.8113 9.86315 37.5177 10.1378C37.2289 10.4077 36.8785 10.5426 36.4666 10.5426Z" fill="#EDF2F4"/>
<path d="M45.8363 12.0909V14.0795H39.5649V12.0909H45.8363ZM41.1132 9.47726H43.6843V19.7187C43.6843 20.0644 43.7363 20.3295 43.8405 20.5142C43.9494 20.6941 44.0915 20.8172 44.2666 20.8835C44.4418 20.9498 44.636 20.9829 44.849 20.9829C45.01 20.9829 45.1568 20.9711 45.2894 20.9474C45.4267 20.9238 45.5309 20.9024 45.6019 20.8835L46.0351 22.8934C45.8978 22.9408 45.7013 22.9929 45.4456 23.0497C45.1947 23.1065 44.8869 23.1397 44.5223 23.1491C43.8784 23.1681 43.2984 23.071 42.7823 22.8579C42.2662 22.6401 41.8566 22.304 41.5536 21.8494C41.2553 21.3949 41.1085 20.8267 41.1132 20.1449V9.47726Z" fill="#EDF2F4"/>
<path d="M50.7919 8.45453V23H48.2208V8.45453H50.7919Z" fill="#EDF2F4"/>
<path d="M58.2652 23.2131C57.1715 23.2131 56.2269 22.9858 55.4314 22.5312C54.6407 22.072 54.0323 21.4233 53.6061 20.5852C53.18 19.7424 52.9669 18.7505 52.9669 17.6094C52.9669 16.4872 53.18 15.5024 53.6061 14.6548C54.037 13.8025 54.6383 13.1397 55.4101 12.6662C56.1819 12.188 57.0886 11.9488 58.1303 11.9488C58.8026 11.9488 59.4371 12.0577 60.0337 12.2756C60.635 12.4886 61.1653 12.8201 61.6246 13.2699C62.0886 13.7197 62.4532 14.2926 62.7184 14.9886C62.9835 15.6799 63.1161 16.5038 63.1161 17.4602V18.2486H54.1743V16.5156H60.6516C60.6469 16.0232 60.5403 15.5852 60.332 15.2017C60.1237 14.8134 59.8325 14.508 59.4584 14.2855C59.0891 14.063 58.6582 13.9517 58.1658 13.9517C57.6402 13.9517 57.1786 14.0795 56.7809 14.3352C56.3831 14.5862 56.073 14.9176 55.8505 15.3295C55.6326 15.7367 55.5214 16.1842 55.5166 16.6719V18.1846C55.5166 18.8191 55.6327 19.3636 55.8647 19.8182C56.0967 20.268 56.421 20.6136 56.8377 20.8551C57.2543 21.0918 57.742 21.2102 58.3007 21.2102C58.6748 21.2102 59.0133 21.1581 59.3164 21.054C59.6194 20.9451 59.8822 20.7864 60.1047 20.5781C60.3273 20.3698 60.4953 20.1117 60.609 19.804L63.0095 20.0738C62.858 20.7083 62.5692 21.2623 62.1431 21.7358C61.7217 22.2045 61.1819 22.5691 60.5238 22.8295C59.8656 23.0852 59.1128 23.2131 58.2652 23.2131Z" fill="#EDF2F4"/>
<path d="M69.3394 23.1917C68.4824 23.1917 67.7154 22.9716 67.0383 22.5312C66.3612 22.0909 65.8262 21.4517 65.4332 20.6136C65.0402 19.7756 64.8437 18.7576 64.8437 17.5596C64.8437 16.3475 65.0426 15.3248 65.4403 14.4915C65.8428 13.6534 66.3849 13.0213 67.0667 12.5952C67.7485 12.1643 68.5085 11.9488 69.3465 11.9488C69.9857 11.9488 70.5113 12.0577 70.9232 12.2756C71.3352 12.4886 71.6619 12.7467 71.9034 13.0497C72.1448 13.348 72.3319 13.6297 72.4644 13.8949H72.571V8.45453H75.1491V23H72.6207V21.2812H72.4644C72.3319 21.5464 72.1401 21.8281 71.8892 22.1264C71.6382 22.42 71.3068 22.6709 70.8948 22.8792C70.4829 23.0876 69.9644 23.1917 69.3394 23.1917ZM70.0568 21.0824C70.6013 21.0824 71.0653 20.9356 71.4488 20.642C71.8323 20.3437 72.1235 19.9294 72.3224 19.3991C72.5213 18.8688 72.6207 18.2509 72.6207 17.5454C72.6207 16.8399 72.5213 16.2268 72.3224 15.7059C72.1283 15.1851 71.8394 14.7803 71.4559 14.4915C71.0771 14.2026 70.6107 14.0582 70.0568 14.0582C69.4839 14.0582 69.0056 14.2074 68.6221 14.5057C68.2386 14.804 67.9498 15.2159 67.7556 15.7415C67.5615 16.267 67.4644 16.8684 67.4644 17.5454C67.4644 18.2273 67.5615 18.8357 67.7556 19.3707C67.9545 19.901 68.2457 20.3201 68.6292 20.6278C69.0175 20.9309 69.4933 21.0824 70.0568 21.0824Z" fill="#EDF2F4"/>
<path d="M92.1324 8.45453H94.7674V17.9574C94.7674 18.999 94.5211 19.9152 94.0287 20.7059C93.541 21.4967 92.8545 22.1146 91.9691 22.5596C91.0836 23 90.0491 23.2202 88.8654 23.2202C87.6769 23.2202 86.64 23 85.7546 22.5596C84.8692 22.1146 84.1826 21.4967 83.6949 20.7059C83.2072 19.9152 82.9634 18.999 82.9634 17.9574V8.45453H85.5983V17.7372C85.5983 18.3433 85.7309 18.883 85.996 19.3565C86.2659 19.83 86.6447 20.2017 87.1324 20.4716C87.6201 20.7367 88.1978 20.8693 88.8654 20.8693C89.533 20.8693 90.1106 20.7367 90.5983 20.4716C91.0907 20.2017 91.4695 19.83 91.7347 19.3565C91.9998 18.883 92.1324 18.3433 92.1324 17.7372V8.45453Z" fill="#EDF2F4"/>
<path d="M100.266 8.45453V23H97.6313V8.45453H100.266Z" fill="#EDF2F4"/>
</svg>
